<svg xmlns="http://www.w3.org/2000/svg" viewBox="0 0 32 32">
  <rect width="32" height="32" rx="4" fill="#0B0B0B"/>
  <!-- Infinity shape with arrows -->
  <path
    d="M6 16 C6 12, 10 9, 13 12 C14.5 13.5, 15 14.5, 16 16 C17 17.5, 17.5 18.5, 19 20 C22 23, 26 20, 26 16 C26 12, 22 9, 19 12 C17.5 13.5, 17 14.5, 16 16 C15 17.5, 14.5 18.5, 13 20 C10 23, 6 20, 6 16 Z"
    fill="none"
    stroke="white"
    stroke-width="1.8"
    stroke-linecap="round"
  />
  <!-- Arrow on right side -->
  <polyline points="24,13.5 26,16 24,18.5" fill="none" stroke="white" stroke-width="1.6" stroke-linecap="round" stroke-linejoin="round"/>
  <!-- Arrow on left side -->
  <polyline points="8,18.5 6,16 8,13.5" fill="none" stroke="white" stroke-width="1.6" stroke-linecap="round" stroke-linejoin="round"/>
</svg>
